<?xml version="1.0" standalone="no"?>
<!DOCTYPE svg PUBLIC "-//W3C//DTD SVG 20010904//EN"
 "http://www.w3.org/TR/2001/REC-SVG-20010904/DTD/svg10.dtd">
<svg version="1.0" xmlns="http://www.w3.org/2000/svg"
 width="966.000000pt" height="966.000000pt" viewBox="0 0 966.000000 966.000000"
 preserveAspectRatio="xMidYMid meet">
<metadata>
Created by potrace 1.11, written by Peter Selinger 2001-2013
</metadata>
<g transform="translate(0.000000,966.000000) scale(0.100000,-0.100000)"
fill="#000000" stroke="none">
<path d="M4529 9345 c-2 -2 -47 -6 -99 -10 -52 -4 -97 -8 -100 -10 -3 -2 -34
-6 -70 -10 -36 -4 -74 -9 -85 -11 -10 -2 -37 -6 -60 -9 -312 -45 -834 -219
-1107 -368 -24 -13 -74 -41 -113 -62 -180 -97 -466 -296 -625 -434 -476 -414
-849 -916 -1113 -1499 -166 -367 -311 -844 -362 -1197 -2 -11 -8 -51 -14 -90
-10 -65 -13 -92 -27 -220 -3 -27 -7 -66 -10 -85 -2 -19 -7 -117 -11 -218 l-6
-184 99 7 c55 3 122 8 149 10 46 4 90 7 280 20 39 3 102 8 140 10 138 10 201
15 275 20 168 12 314 22 420 30 148 11 284 19 348 19 72 1 73 1 110 -39 20
-22 59 -67 87 -100 27 -33 52 -62 55 -65 3 -3 27 -32 55 -65 27 -33 52 -62 55
-65 3 -3 27 -32 55 -65 27 -33 52 -62 55 -65 3 -3 30 -34 60 -70 30 -36 65
-76 76 -90 21 -25 116 -137 303 -359 92 -109 95 -111 130 -107 20 3 72 8 116
11 82 6 149 11 265 20 36 3 94 7 130 10 36 3 94 7 130 10 36 3 94 7 130 10 36
3 94 7 130 10 36 3 94 8 130 10 104 8 202 16 250 20 25 2 83 7 130 10 47 3
105 7 130 10 25 2 86 7 135 10 50 4 106 8 125 10 44 4 162 13 265 20 44 3 98
7 120 10 36 4 147 12 260 20 85 6 212 16 255 20 25 3 83 7 130 10 47 3 105 7
130 10 75 7 181 16 255 20 39 2 99 6 135 9 36 3 97 8 135 12 39 3 90 7 115 9
25 3 83 7 130 10 47 3 105 7 130 10 25 3 83 7 130 10 47 3 105 7 130 10 25 2
83 7 130 10 47 4 101 8 120 10 19 2 76 6 125 10 157 11 219 16 260 20 22 2 85
7 140 11 90 6 140 10 155 13 3 1 6 11 7 24 1 12 7 60 13 107 40 310 46 714 15
1045 -6 62 -22 196 -31 255 -2 14 -6 43 -9 65 -5 34 -16 90 -41 210 -2 11 -6
32 -9 46 -20 111 -146 531 -190 634 -7 17 -36 86 -65 155 -60 141 -139 302
-213 435 -75 135 -264 416 -363 540 -278 346 -582 627 -924 851 -209 137 -345
211 -592 323 -145 65 -391 147 -592 196 -96 24 -113 28 -188 40 -18 3 -40 8
-48 10 -8 2 -39 7 -69 10 -30 3 -57 8 -61 10 -3 2 -44 6 -90 10 -47 4 -96 9
-110 12 -30 5 -436 13 -441 8z m1962 -2145 c53 -15 128 -69 163 -118 133 -187
43 -439 -177 -496 -106 -28 -211 0 -293 78 -244 229 -19 622 307 536z m-2447
-233 c224 -103 262 -417 70 -576 -123 -100 -321 -91 -432 20 -159 158 -139
404 44 529 88 61 219 72 318 27z m1838 -866 c14 -5 30 -23 37 -39 11 -26 10
-36 -4 -66 -20 -42 -17 -42 -245 -61 -36 -4 -76 -8 -90 -10 -14 -3 -56 -7 -95
-10 -38 -3 -86 -8 -105 -10 -19 -2 -62 -7 -95 -10 -33 -3 -78 -8 -100 -10 -22
-2 -71 -7 -110 -11 -38 -4 -81 -8 -95 -9 -158 -17 -181 -17 -206 0 -32 21 -44
53 -31 88 14 41 42 54 132 62 44 4 91 8 105 10 14 2 61 6 105 10 44 4 87 9 96
10 9 2 52 6 95 10 43 3 95 8 114 10 36 4 116 13 185 20 22 2 74 7 115 10 41 4
76 8 77 9 8 7 94 5 115 -3z"/>
<path d="M9410 5799 c-30 -4 -84 -10 -120 -14 -36 -3 -76 -8 -90 -10 -14 -2
-54 -7 -90 -10 -36 -4 -76 -9 -90 -10 -14 -2 -52 -6 -85 -10 -33 -3 -69 -7
-80 -10 -11 -2 -28 -4 -37 -4 -13 -1 -16 -9 -13 -43 10 -114 19 -437 20 -648
0 -211 -4 -292 -21 -425 -9 -74 -11 -176 -3 -173 4 2 85 129 179 283 95 154
182 296 195 315 13 19 34 53 47 76 23 40 174 288 290 473 60 98 69 131 42 169
-30 43 -62 52 -144 41z"/>
<path d="M2297 4814 c-1 -1 -45 -5 -97 -8 -97 -7 -165 -13 -255 -21 -27 -3
-93 -7 -145 -11 -52 -3 -111 -7 -130 -9 -19 -2 -78 -6 -130 -10 -52 -4 -111
-8 -130 -10 -19 -2 -82 -6 -140 -10 -58 -4 -116 -8 -130 -10 -14 -2 -70 -7
-125 -10 -55 -4 -116 -8 -135 -10 -19 -2 -82 -7 -140 -10 -58 -4 -112 -8 -120
-10 -8 -2 -64 -6 -125 -10 -60 -3 -126 -8 -145 -10 -19 -3 -73 -7 -120 -10
-102 -7 -133 -24 -138 -77 -3 -36 18 -59 282 -298 27 -25 57 -52 66 -60 9 -8
63 -58 120 -110 139 -127 223 -205 284 -263 l51 -48 120 7 c66 3 145 8 175 9
250 13 311 16 355 20 28 2 106 7 175 10 69 4 150 8 180 10 30 2 114 6 185 10
72 4 153 8 180 10 45 3 137 8 350 20 39 2 129 7 200 10 72 4 146 8 165 10 19
1 63 3 98 4 34 1 62 5 62 9 0 4 -16 26 -36 48 -20 21 -42 47 -49 57 -7 10 -30
37 -51 60 -22 23 -91 103 -154 177 -104 122 -156 183 -185 214 -6 6 -51 58
-100 116 -142 166 -181 209 -194 211 -18 3 -72 5 -74 3z"/>
<path d="M8378 4085 c-2 -2 -52 -6 -113 -10 -60 -4 -128 -9 -150 -11 -129 -9
-207 -14 -255 -18 -30 -3 -93 -7 -140 -10 -47 -4 -110 -8 -140 -11 -30 -3 -86
-7 -125 -10 -38 -2 -104 -7 -145 -10 -41 -4 -97 -8 -125 -10 -151 -11 -234
-17 -265 -20 -19 -2 -82 -6 -140 -10 -58 -3 -121 -8 -140 -10 -32 -3 -92 -7
-280 -21 -36 -2 -90 -6 -120 -9 -30 -3 -91 -8 -135 -10 -44 -3 -105 -7 -135
-10 -97 -8 -193 -15 -275 -20 -44 -2 -105 -7 -135 -10 -60 -5 -140 -11 -265
-20 -79 -6 -118 -9 -268 -20 -43 -3 -102 -8 -130 -10 -29 -1 -90 -6 -137 -10
-47 -3 -110 -8 -140 -10 -30 -2 -91 -6 -135 -10 -136 -10 -177 -13 -270 -20
-49 -3 -108 -8 -130 -10 -22 -2 -83 -7 -135 -10 -52 -4 -115 -8 -140 -10 -25
-2 -90 -6 -145 -10 -55 -4 -113 -9 -130 -10 -16 -2 -39 -4 -51 -4 -19 -1 -20
-6 -18 -53 1 -29 5 -132 9 -228 3 -96 8 -211 10 -255 2 -44 6 -152 9 -240 4
-88 9 -212 11 -275 3 -63 8 -169 10 -235 7 -186 15 -399 20 -520 2 -60 7 -175
10 -255 3 -80 8 -189 10 -242 2 -54 7 -166 10 -250 3 -84 7 -196 10 -248 2
-52 7 -169 11 -260 3 -91 7 -199 9 -240 2 -41 4 -83 4 -93 1 -10 4 -16 9 -14
4 3 43 8 87 11 44 4 91 9 105 11 14 2 65 6 113 10 49 4 98 8 110 10 12 2 63 7
112 11 50 4 99 8 110 9 11 2 54 5 95 9 41 3 95 9 120 11 25 3 68 7 95 10 28 2
75 7 105 9 30 3 84 8 120 11 59 5 88 8 200 20 19 2 69 7 110 10 41 3 91 8 110
10 19 1 71 6 115 9 44 4 91 9 105 11 14 2 61 7 105 10 79 6 131 11 210 20 22
3 72 7 110 10 72 6 144 13 205 20 19 2 75 7 125 10 49 4 92 8 95 10 3 1 52 6
110 10 58 4 107 8 110 10 3 1 46 6 95 10 50 3 101 8 115 10 14 2 61 6 105 10
44 3 91 8 105 10 14 2 61 6 105 10 85 6 164 13 230 20 40 4 112 11 207 20 62
5 144 13 208 20 25 3 79 7 120 10 41 3 86 8 100 10 14 2 66 7 115 10 50 4 97
9 106 10 9 2 56 6 105 10 49 4 93 11 98 16 5 4 10 28 11 51 4 69 16 269 20
318 5 60 13 193 30 480 3 58 8 130 10 160 2 31 7 98 10 150 5 101 13 214 20
320 2 36 7 110 10 165 3 55 7 129 10 165 2 36 7 108 10 160 3 52 8 124 10 160
2 36 7 108 10 160 3 52 8 124 10 160 3 36 7 108 10 160 6 101 11 193 20 330
12 203 16 259 21 323 l5 68 -70 -2 c-39 -1 -72 -3 -73 -4z"/>
<path d="M3057 3714 c-1 -1 -74 -5 -162 -8 -88 -4 -191 -9 -230 -11 -38 -2
-133 -7 -210 -10 -77 -4 -174 -8 -215 -10 -66 -4 -279 -13 -440 -20 -68 -3
-341 -15 -430 -20 -97 -5 -390 -18 -432 -19 -33 -1 -41 -6 -40 -26 2 -43 15
-219 17 -230 2 -8 6 -53 10 -100 3 -47 8 -101 10 -120 2 -19 7 -71 10 -115 4
-44 8 -96 10 -115 2 -19 6 -71 10 -115 3 -44 8 -96 10 -115 3 -19 7 -69 10
-110 3 -41 8 -95 10 -120 10 -111 18 -199 30 -340 3 -36 7 -85 10 -110 2 -25
7 -83 10 -130 4 -47 8 -96 10 -110 2 -14 6 -61 10 -105 3 -44 8 -96 10 -115 2
-19 6 -73 10 -120 3 -47 7 -101 10 -120 6 -50 14 -134 20 -215 3 -38 7 -90 10
-115 3 -25 8 -81 11 -125 3 -44 8 -93 9 -110 2 -16 4 -42 4 -56 1 -25 4 -26
119 -44 132 -20 141 -21 197 -30 22 -3 65 -10 95 -15 30 -5 102 -16 160 -25
100 -14 121 -18 180 -30 14 -2 48 -7 75 -11 63 -7 80 -10 190 -28 50 -9 108
-18 130 -21 22 -3 94 -14 160 -25 66 -10 138 -21 160 -25 22 -3 51 -8 65 -10
82 -14 221 -35 260 -40 25 -3 72 -10 105 -16 33 -6 71 -13 85 -15 14 -2 39 -6
55 -9 17 -2 54 -7 83 -11 l52 -6 -5 143 c-8 208 -15 388 -20 519 -2 63 -7 180
-10 260 -3 80 -8 195 -10 255 -3 61 -7 173 -10 250 -3 77 -7 194 -10 260 -3
66 -7 176 -10 245 -3 69 -7 181 -10 250 -5 121 -10 248 -20 510 -4 115 -12
324 -20 525 -2 44 -4 104 -4 132 l-1 53 -66 -3 c-36 -1 -66 -3 -67 -3z"/>
</g>
</svg>
