<?xml version="1.0" encoding="UTF-8" standalone="no"?>
<!DOCTYPE svg PUBLIC "-//W3C//DTD SVG 1.1//EN" "http://www.w3.org/Graphics/SVG/1.1/DTD/svg11.dtd">
<svg width="100%" height="100%" viewBox="0 0 1000 1000" version="1.1" xmlns="http://www.w3.org/2000/svg" xmlns:xlink="http://www.w3.org/1999/xlink" xml:space="preserve" xmlns:serif="http://www.serif.com/" style="fill-rule:evenodd;clip-rule:evenodd;stroke-linejoin:round;stroke-miterlimit:2;">
    <g transform="matrix(0.705556,0,0,0.705556,242.422,122.584)">
        <g id="Layer_5_Copy">
            <g id="背景" transform="matrix(0.939921,0,0,0.939921,17.0793,41.2903)">
                <g transform="matrix(2.56174,0,0,2.56174,-268.832,-150.912)">
                    <path d="M248.63,37.505L254.154,37.523C368.29,39.972 455.842,136.656 464.103,247.732L512.741,242.284L462.255,311.042L453.031,507.163L339.773,516.512L313.259,519.206L313.249,519.053L190.586,531.323L45.936,508.639L37.363,341.655C37.363,341.656 -13.809,281.434 -13.809,281.434L35.291,278.337L35.971,279.312L35.991,273.754C38.849,152 121.518,42.501 248.63,37.505Z" style="fill:white;fill-opacity:0.16;fill-rule:nonzero;stroke:white;stroke-width:39.24px;"/>
                </g>
                <g transform="matrix(2.56174,0,0,2.56174,-268.832,-150.912)">
                    <path d="M248.63,37.505L254.154,37.523C368.29,39.972 455.842,136.656 464.103,247.732L512.741,242.284L462.255,311.042L453.031,507.163L339.773,516.512L313.259,519.206L313.249,519.053L190.586,531.323L45.936,508.639L37.363,341.655C37.363,341.656 -13.809,281.434 -13.809,281.434L35.291,278.337L35.971,279.312L35.991,273.754C38.849,152 121.518,42.501 248.63,37.505Z" style="fill-opacity:0;fill-rule:nonzero;"/>
                </g>
                <g transform="matrix(2.56174,0,0,2.56174,-268.832,-150.912)">
                    <path d="M418.278,242.433L419.003,242.545L448.322,249.143L500.871,243.309C505.315,242.816 508.224,247.801 505.578,251.374L448.442,328.508C445.982,331.829 440.767,331.024 439.443,327.118L413.003,249.125C412.111,244.993 414.362,242.632 418.278,242.433Z" style="fill:rgb(177,135,0);fill-rule:nonzero;"/>
                </g>
                <g transform="matrix(2.56174,0,0,2.56174,-268.832,-150.912)">
                    <path d="M246.029,515.864C127.855,513.801 32.478,404.574 34.791,272.045C37.105,139.516 136.232,33.871 254.406,35.934C372.581,37.996 467.718,141.998 465.405,274.527C463.091,407.056 364.204,517.927 246.029,515.864Z" style="fill:rgb(144,226,0);fill-rule:nonzero;"/>
                    <g transform="matrix(0.492599,-0.0546261,-0.0350965,0.244747,18.4109,135.691)">
                        <path d="M506.109,461.75C503.147,465.658 498.485,463.031 495.706,455.887C492.927,448.744 493.076,439.771 496.038,435.863C496.038,435.863 508.426,419.973 519.916,420.298C524.691,420.433 529.137,423.355 533.461,427.104C537.459,430.57 541.256,435.501 545.353,435.721C548.5,435.89 550.516,432.444 553.14,429.59C557.406,424.948 562.418,420.434 570.363,420.591C575.126,420.686 579.322,423.389 583.596,426.745C587.668,429.942 591.852,434.146 597.515,433.496C600.333,433.173 601.737,429.861 603.68,427.105C607.166,422.163 611.317,417.32 618.923,416.725C634.36,415.517 647.734,435.459 647.734,435.459C651.362,440.826 652.824,450.154 650.996,456.278C649.168,462.402 644.739,463.018 641.111,457.651C641.111,457.651 632.762,445.458 623.136,446.211C617.413,446.659 614.927,451.352 612.411,454.939C609.45,459.159 606.446,462.446 601.97,462.959C594.818,463.779 589.232,460.074 583.996,455.951C580.661,453.325 577.558,450.169 573.908,450.097C567.316,449.966 563.769,454.975 560.389,458.656C556.761,462.605 553.219,465.462 548.663,465.218C544.191,464.978 539.911,462.018 535.617,458.214C531.705,454.748 527.794,449.926 523.403,449.802C515.007,449.564 506.109,461.75 506.109,461.75Z"/>
                    </g>
                </g>
                <g transform="matrix(0.90252,0,0,0.90252,40.7511,5.89238)">
                    <g transform="matrix(2.83843,0,0,2.83843,-343.02,-173.74)">
                        <path d="M462.507,309.452L452.325,512.571L190.086,530.822L46.041,511.862L37.619,340.142L37.39,339.882L36.856,339.28L36.272,338.623L35.639,337.913L34.96,337.154L34.238,336.348L33.474,335.498L32.672,334.605L31.833,333.674L30.96,332.705L30.055,331.703L29.12,330.668L28.157,329.603L27.169,328.511L26.158,327.395L25.126,326.256L23.543,324.511L21.38,322.128L19.173,319.699L16.939,317.242L14.696,314.778L12.462,312.325L10.254,309.901L8.09,307.527L6.506,305.79L5.473,304.658L4.461,303.548L3.471,302.464L2.507,301.407L1.57,300.38L0.663,299.387L-0.212,298.428L-1.054,297.506L-1.859,296.625L-2.626,295.785L-3.352,294.99L-4.036,294.242L-4.675,293.543L-5.266,292.896L-5.809,292.302L-6.3,291.766L-6.737,291.287L-7.118,290.871L-7.441,290.517L-7.704,290.23L-7.904,290.011L-8.04,289.863L-8.098,289.799L-8.115,289.78L-8.117,289.778C-10.239,287.459 -10.036,283.901 -7.663,281.832C-6.716,281.005 -5.514,280.508 -4.246,280.418L129.34,270.925C129.624,270.935 129.908,270.929 130.192,270.924L130.404,270.941C130.68,271.003 130.538,270.964 130.828,271.062C131.432,271.095 131.067,271.033 131.882,271.409C132.735,271.691 132.428,271.488 132.886,271.874C133.544,272.178 133.109,271.941 134.055,272.784L183.477,331.124L183.487,331.123L462.507,309.452Z" style="fill:rgb(179,133,94);fill-rule:nonzero;"/>
                    </g>
                    <g transform="matrix(2.83843,0,0,2.83843,-343.02,-173.74)">
                        <path d="M130.192,270.924C130.605,270.961 130.392,270.92 130.828,271.063C131.432,271.096 131.067,271.034 131.882,271.41C132.735,271.691 132.428,271.488 132.886,271.874C133.544,272.179 133.109,271.942 134.055,272.785L184.047,331.797C186.173,334.113 186.672,333.867 184.303,335.941C183.333,336.79 182.096,337.292 180.794,337.366L180.788,337.366L180.738,337.369L180.64,337.375L180.493,337.383L180.3,337.394L180.06,337.408L179.774,337.424L179.443,337.442L179.069,337.464L178.651,337.487L178.19,337.513L177.688,337.542L177.144,337.572L176.561,337.605L175.938,337.64L175.276,337.678L174.577,337.717L173.84,337.758L173.068,337.802L172.259,337.848L170.982,337.919L169.162,338.022L167.214,338.131L165.144,338.247L162.958,338.37L160.664,338.498L158.266,338.633L155.771,338.772L153.186,338.916L150.517,339.065L147.769,339.218L144.95,339.375L142.065,339.536L139.121,339.699L136.124,339.865L133.079,340.034L128.439,340.29L122.147,340.637L115.779,340.986L109.386,341.336L103.017,341.682L96.724,342.022L92.083,342.272L89.038,342.434L86.04,342.594L83.095,342.751L80.209,342.903L77.389,343.051L74.64,343.195L71.97,343.333L69.383,343.467L66.887,343.594L64.487,343.716L62.189,343.831L60.001,343.939L57.928,344.041L55.975,344.134L54.15,344.22L52.867,344.279L52.054,344.316L51.278,344.35L50.537,344.383L49.832,344.413L49.164,344.44L48.535,344.466L47.943,344.489L47.391,344.51L46.877,344.528L46.403,344.543L45.969,344.557L45.574,344.567L45.217,344.575L44.895,344.58L44.605,344.583L44.336,344.582L44.064,344.576L43.714,344.557L42.926,344.449L39.962,342.879C39.163,341.97 39.568,342.514 38.828,341.195L38.947,341.512L39.234,341.987L39.275,342.051L39.162,341.918L38.947,341.664L38.653,341.323L38.292,340.908L37.87,340.426L37.39,339.882L36.856,339.28L36.272,338.623L35.639,337.913L34.96,337.154L34.238,336.348L33.474,335.498L32.672,334.606L31.833,333.674L30.96,332.706L30.055,331.703L29.12,330.668L28.157,329.603L27.169,328.511L26.158,327.395L25.126,326.256L23.543,324.511L21.38,322.128L19.173,319.699L16.939,317.243L14.696,314.778L12.462,312.325L10.254,309.901L8.09,307.527L6.506,305.79L5.473,304.658L4.461,303.548L3.471,302.464L2.507,301.407L1.57,300.381L0.663,299.387L-0.212,298.429L-1.054,297.507L-1.859,296.626L-2.626,295.786L-3.353,294.991L-4.036,294.243L-4.675,293.544L-5.266,292.896L-5.809,292.303L-6.3,291.766L-6.737,291.288L-7.118,290.871L-7.441,290.518L-7.704,290.231L-7.904,290.012L-8.04,289.863L-8.098,289.8L-8.115,289.781L-8.117,289.779C-10.239,287.459 -10.036,283.901 -7.663,281.832C-6.716,281.006 -5.514,280.509 -4.246,280.419L129.34,270.926C129.893,270.934 129.609,270.934 130.192,270.924Z" style="fill:rgb(134,85,0);fill-rule:nonzero;"/>
                    </g>
                </g>
                <g id="左側パーツ" transform="matrix(2.56174,0,0,2.56174,-268.832,-150.912)">
                    <path d="M46.169,512.571L190.086,530.823L183.487,331.123L37.615,340.065L46.169,512.571Z" style="fill:rgb(179,133,94);fill-rule:nonzero;"/>
                </g>
                <g id="前面パーツ" transform="matrix(2.56174,0,0,2.56174,-268.832,-150.912)">
                    <path d="M183.487,331.123L190.086,530.823L452.523,512.571L462.507,309.452L183.487,331.123Z" style="fill:rgb(225,195,154);fill-rule:nonzero;"/>
                </g>
                <g id="前面テープ" transform="matrix(2.56174,0,0,2.56174,-268.832,-150.912)">
                    <path d="M303.73,321.894L342.493,318.835L350.967,515.892L312.672,519.534L303.73,321.894Z" style="fill:rgb(216,168,0);fill-rule:nonzero;"/>
                </g>
                <g id="左側テープ" transform="matrix(2.56174,0,0,2.56174,-268.832,-150.912)">
                    <path d="M89.967,336.723L114.553,335.152L122.18,519.534L97.191,515.479L89.967,336.723Z" style="fill:rgb(132,99,0);fill-rule:nonzero;"/>
                </g>
                <g id="裏側テープ" transform="matrix(2.56174,0,0,2.56174,-268.832,-150.912)">
                    <path d="M34.75,277.945L59.577,276.137L114.553,335.152L89.967,336.723L34.75,277.945Z" style="fill:rgb(100,61,0);fill-rule:nonzero;"/>
                </g>
            </g>
            <g transform="matrix(1.69538,0,0,1.69538,-417.439,-290.321)">
                <path d="M387.933,384.629C390.677,386.482 391.402,390.215 389.549,392.959C387.696,395.704 383.963,396.428 381.219,394.575C381.219,394.575 375.123,390.496 370.192,383.52C364.959,376.114 361.092,365.634 365.952,353.425C371.383,339.78 376.425,332.763 382.859,328.909C387.336,326.227 392.591,324.981 399.481,324.548C403.262,324.31 410.1,326.143 416.997,330.358C426.708,336.294 436.554,346.73 438.194,360.245C439.49,370.926 438.193,379.472 432.853,384.832C429.189,388.511 423.455,391.041 414.489,391.251C405.366,391.465 399.883,390.615 395.844,388.152C391.657,385.598 388.653,381.216 385.44,373.107C381.771,363.844 383.123,357.747 385.661,353.774C388.426,349.443 393.064,347.24 397.019,346.386C404.505,344.769 410.434,347.12 414.036,351.984C417.121,356.151 418.596,362.767 416.588,371.415C415.839,374.641 412.612,376.652 409.386,375.903C406.161,375.154 404.15,371.927 404.899,368.701C405.563,365.84 405.715,363.375 405.299,361.361C405.054,360.179 404.641,359.2 403.885,358.59C402.824,357.733 401.3,357.738 399.552,358.116C398.288,358.389 396.658,358.848 395.774,360.233C394.659,361.978 394.984,364.618 396.596,368.687C398.482,373.446 399.636,376.408 402.093,377.907C404.698,379.496 408.325,379.392 414.209,379.255C419.07,379.141 422.365,378.358 424.352,376.363C425.6,375.11 426.165,373.412 426.464,371.458C426.899,368.616 426.722,365.322 426.281,361.691C425.108,352.026 417.683,344.842 410.738,340.597C406.528,338.024 402.543,336.379 400.235,336.524C395.614,336.815 392.028,337.405 389.026,339.203C384.242,342.069 381.14,347.716 377.101,357.863C374.071,365.477 376.728,371.976 379.992,376.594C383.559,381.641 387.933,384.629 387.933,384.629Z" style="fill:rgb(39,39,39);"/>
            </g>
            <g transform="matrix(-0.842483,1.38128,-1.38128,-0.842483,1414.47,43.0996)">
                <path d="M393.18,390.432C395.814,392.439 396.323,396.207 394.316,398.841C392.309,401.475 388.541,401.985 385.907,399.978C385.907,399.978 375.618,392.133 369.264,381.134C364.542,372.959 362.068,363.182 365.952,353.425C369.521,344.459 372.997,339.011 376.739,335.293C382.351,329.717 388.688,327.92 397.968,324.841C403.122,323.131 411.032,323.963 418.542,327.943C428.97,333.469 438.656,344.745 438.235,361.122C437.965,371.634 436.88,378.386 432.113,383.289C428.946,386.546 423.975,389.17 415.711,391.096C410.877,392.223 406.145,392.078 401.649,390.181C395.61,387.633 389.656,381.668 385.035,369.588C382.864,363.91 384.286,356.954 387.614,351.978C390.103,348.256 393.598,345.745 396.989,345.012C404.048,343.488 410.233,345.137 414.199,349.108C418,352.913 420.217,359.248 418.097,368.375C417.348,371.601 414.121,373.611 410.896,372.862C407.67,372.113 405.659,368.886 406.408,365.661C407.282,361.898 407.275,359.156 405.708,357.587C404.308,356.186 402.014,356.204 399.522,356.742C398.734,356.912 398.168,357.784 397.589,358.649C396.32,360.546 395.415,363.136 396.244,365.3C400.923,377.535 406.411,380.942 412.987,379.41C418.19,378.197 421.515,376.975 423.509,374.924C424.643,373.758 425.162,372.305 425.51,370.565C426.049,367.878 426.14,364.674 426.239,360.814C426.522,349.802 419.936,342.262 412.924,338.546C408.804,336.363 404.575,335.292 401.747,336.23C394.608,338.599 389.514,339.517 385.196,343.806C382.319,346.665 379.845,350.97 377.101,357.863C374.672,363.966 376.701,370.018 379.655,375.132C384.816,384.066 393.18,390.432 393.18,390.432Z" style="fill:rgb(39,39,39);"/>
            </g>
        </g>
    </g>
</svg>
