<?xml version="1.0" encoding="UTF-8" standalone="no"?>
<!DOCTYPE svg PUBLIC "-//W3C//DTD SVG 1.1//EN" "http://www.w3.org/Graphics/SVG/1.1/DTD/svg11.dtd">
<svg width="100%" height="100%" viewBox="0 0 1000 1000" version="1.1" xmlns="http://www.w3.org/2000/svg" xmlns:xlink="http://www.w3.org/1999/xlink" xml:space="preserve" xmlns:serif="http://www.serif.com/" style="fill-rule:evenodd;clip-rule:evenodd;stroke-linejoin:round;stroke-miterlimit:2;">
    <g id="Layer_5_Copy" transform="matrix(0.705556,0,0,0.705556,242.422,122.584)">
        <g id="Layer_4">
        </g>
        <g id="レイヤー1">
        </g>
        <g id="背景" transform="matrix(0.939921,0,0,0.939921,17.0793,41.2903)">
            <g transform="matrix(2.56174,0,0,2.56174,-268.832,-150.912)">
                <path d="M248.63,37.505L254.154,37.523C368.29,39.972 455.842,136.656 464.103,247.732L512.741,242.284L462.255,311.042L453.031,507.163L339.773,516.512L313.259,519.206L313.249,519.053L190.586,531.323L45.936,508.639L37.363,341.655C37.363,341.656 -13.809,281.434 -13.809,281.434L35.291,278.337L35.971,279.312L35.991,273.754C38.849,152 121.518,42.501 248.63,37.505Z" style="fill:white;fill-opacity:0.16;fill-rule:nonzero;stroke:white;stroke-width:39.24px;"/>
            </g>
            <g transform="matrix(2.56174,0,0,2.56174,-268.832,-150.912)">
                <path d="M248.63,37.505L254.154,37.523C368.29,39.972 455.842,136.656 464.103,247.732L512.741,242.284L462.255,311.042L453.031,507.163L339.773,516.512L313.259,519.206L313.249,519.053L190.586,531.323L45.936,508.639L37.363,341.655C37.363,341.656 -13.809,281.434 -13.809,281.434L35.291,278.337L35.971,279.312L35.991,273.754C38.849,152 121.518,42.501 248.63,37.505Z" style="fill-opacity:0;fill-rule:nonzero;"/>
            </g>
            <g transform="matrix(2.56174,0,0,2.56174,-268.832,-150.912)">
                <path d="M418.278,242.433L419.003,242.545L448.322,249.143L500.871,243.309C505.315,242.816 508.224,247.801 505.578,251.374L448.442,328.508C445.982,331.829 440.767,331.024 439.443,327.118L413.003,249.125C412.111,244.993 414.362,242.632 418.278,242.433Z" style="fill:rgb(177,135,0);fill-rule:nonzero;"/>
            </g>
            <g transform="matrix(2.56174,0,0,2.56174,-268.832,-150.912)">
                <path d="M246.029,515.864C127.855,513.801 32.478,404.574 34.791,272.045C37.105,139.516 136.232,33.871 254.406,35.934C372.581,37.996 467.718,141.998 465.405,274.527C463.091,407.056 364.204,517.927 246.029,515.864Z" style="fill:rgb(144,226,0);fill-rule:nonzero;"/>
            </g>
            <g transform="matrix(0.90252,0,0,0.90252,40.7511,5.89238)">
                <g transform="matrix(2.83843,0,0,2.83843,-343.02,-173.74)">
                    <path d="M462.507,309.452L452.325,512.571L190.086,530.822L46.041,511.862L37.619,340.142L37.39,339.882L36.856,339.28L36.272,338.623L35.639,337.913L34.96,337.154L34.238,336.348L33.474,335.498L32.672,334.605L31.833,333.674L30.96,332.705L30.055,331.703L29.12,330.668L28.157,329.603L27.169,328.511L26.158,327.395L25.126,326.256L23.543,324.511L21.38,322.128L19.173,319.699L16.939,317.242L14.696,314.778L12.462,312.325L10.254,309.901L8.09,307.527L6.506,305.79L5.473,304.658L4.461,303.548L3.471,302.464L2.507,301.407L1.57,300.38L0.663,299.387L-0.212,298.428L-1.054,297.506L-1.859,296.625L-2.626,295.785L-3.352,294.99L-4.036,294.242L-4.675,293.543L-5.266,292.896L-5.809,292.302L-6.3,291.766L-6.737,291.287L-7.118,290.871L-7.441,290.517L-7.704,290.23L-7.904,290.011L-8.04,289.863L-8.098,289.799L-8.115,289.78L-8.117,289.778C-10.239,287.459 -10.036,283.901 -7.663,281.832C-6.716,281.005 -5.514,280.508 -4.246,280.418L129.34,270.925C129.624,270.935 129.908,270.929 130.192,270.924L130.404,270.941C130.68,271.003 130.538,270.964 130.828,271.062C131.432,271.095 131.067,271.033 131.882,271.409C132.735,271.691 132.428,271.488 132.886,271.874C133.544,272.178 133.109,271.941 134.055,272.784L183.477,331.124L183.487,331.123L462.507,309.452Z" style="fill:rgb(179,133,94);fill-rule:nonzero;"/>
                </g>
                <g transform="matrix(2.83843,0,0,2.83843,-343.02,-173.74)">
                    <path d="M130.192,270.924C130.605,270.961 130.392,270.92 130.828,271.063C131.432,271.096 131.067,271.034 131.882,271.41C132.735,271.691 132.428,271.488 132.886,271.874C133.544,272.179 133.109,271.942 134.055,272.785L184.047,331.797C186.173,334.113 186.672,333.867 184.303,335.941C183.333,336.79 182.096,337.292 180.794,337.366L180.788,337.366L180.738,337.369L180.64,337.375L180.493,337.383L180.3,337.394L180.06,337.408L179.774,337.424L179.443,337.442L179.069,337.464L178.651,337.487L178.19,337.513L177.688,337.542L177.144,337.572L176.561,337.605L175.938,337.64L175.276,337.678L174.577,337.717L173.84,337.758L173.068,337.802L172.259,337.848L170.982,337.919L169.162,338.022L167.214,338.131L165.144,338.247L162.958,338.37L160.664,338.498L158.266,338.633L155.771,338.772L153.186,338.916L150.517,339.065L147.769,339.218L144.95,339.375L142.065,339.536L139.121,339.699L136.124,339.865L133.079,340.034L128.439,340.29L122.147,340.637L115.779,340.986L109.386,341.336L103.017,341.682L96.724,342.022L92.083,342.272L89.038,342.434L86.04,342.594L83.095,342.751L80.209,342.903L77.389,343.051L74.64,343.195L71.97,343.333L69.383,343.467L66.887,343.594L64.487,343.716L62.189,343.831L60.001,343.939L57.928,344.041L55.975,344.134L54.15,344.22L52.867,344.279L52.054,344.316L51.278,344.35L50.537,344.383L49.832,344.413L49.164,344.44L48.535,344.466L47.943,344.489L47.391,344.51L46.877,344.528L46.403,344.543L45.969,344.557L45.574,344.567L45.217,344.575L44.895,344.58L44.605,344.583L44.336,344.582L44.064,344.576L43.714,344.557L42.926,344.449L39.962,342.879C39.163,341.97 39.568,342.514 38.828,341.195L38.947,341.512L39.234,341.987L39.275,342.051L39.162,341.918L38.947,341.664L38.653,341.323L38.292,340.908L37.87,340.426L37.39,339.882L36.856,339.28L36.272,338.623L35.639,337.913L34.96,337.154L34.238,336.348L33.474,335.498L32.672,334.606L31.833,333.674L30.96,332.706L30.055,331.703L29.12,330.668L28.157,329.603L27.169,328.511L26.158,327.395L25.126,326.256L23.543,324.511L21.38,322.128L19.173,319.699L16.939,317.243L14.696,314.778L12.462,312.325L10.254,309.901L8.09,307.527L6.506,305.79L5.473,304.658L4.461,303.548L3.471,302.464L2.507,301.407L1.57,300.381L0.663,299.387L-0.212,298.429L-1.054,297.507L-1.859,296.626L-2.626,295.786L-3.353,294.991L-4.036,294.243L-4.675,293.544L-5.266,292.896L-5.809,292.303L-6.3,291.766L-6.737,291.288L-7.118,290.871L-7.441,290.518L-7.704,290.231L-7.904,290.012L-8.04,289.863L-8.098,289.8L-8.115,289.781L-8.117,289.779C-10.239,287.459 -10.036,283.901 -7.663,281.832C-6.716,281.006 -5.514,280.509 -4.246,280.419L129.34,270.926C129.893,270.934 129.609,270.934 130.192,270.924Z" style="fill:rgb(134,85,0);fill-rule:nonzero;"/>
                </g>
            </g>
            <g id="左側パーツ" transform="matrix(2.56174,0,0,2.56174,-268.832,-150.912)">
                <path d="M46.169,512.571L190.086,530.823L183.487,331.123L37.615,340.065L46.169,512.571Z" style="fill:rgb(179,133,94);fill-rule:nonzero;"/>
            </g>
            <g id="前面パーツ" transform="matrix(2.56174,0,0,2.56174,-268.832,-150.912)">
                <path d="M183.487,331.123L190.086,530.823L452.523,512.571L462.507,309.452L183.487,331.123Z" style="fill:rgb(225,195,154);fill-rule:nonzero;"/>
            </g>
            <g id="前面テープ" transform="matrix(2.56174,0,0,2.56174,-268.832,-150.912)">
                <path d="M303.73,321.894L342.493,318.835L350.967,515.892L312.672,519.534L303.73,321.894Z" style="fill:rgb(216,168,0);fill-rule:nonzero;"/>
            </g>
            <g id="左側テープ" transform="matrix(2.56174,0,0,2.56174,-268.832,-150.912)">
                <path d="M89.967,336.723L114.553,335.152L122.18,519.534L97.191,515.479L89.967,336.723Z" style="fill:rgb(132,99,0);fill-rule:nonzero;"/>
            </g>
            <g id="裏側テープ" transform="matrix(2.56174,0,0,2.56174,-268.832,-150.912)">
                <path d="M34.75,277.945L59.577,276.137L114.553,335.152L89.967,336.723L34.75,277.945Z" style="fill:rgb(100,61,0);fill-rule:nonzero;"/>
            </g>
        </g>
        <g transform="matrix(2.40783,0,0,2.40783,-243.276,-100.555)">
            <path d="M207.55,193.06C197.732,192.889 189.914,184.634 190.089,174.622C190.263,164.61 198.365,156.632 208.183,156.804C218.002,156.975 225.82,165.23 225.645,175.242C225.47,185.254 217.369,193.232 207.55,193.06Z" style="fill:rgb(39,39,39);fill-rule:nonzero;"/>
        </g>
        <g transform="matrix(2.40783,0,0,2.40783,-243.276,-100.555)">
            <path d="M340.477,179.4C331.051,179.236 323.544,171.448 323.708,162.006C323.873,152.563 331.648,145.042 341.074,145.207C350.5,145.371 358.008,153.159 357.843,162.601C357.678,172.044 349.903,179.565 340.477,179.4Z" style="fill:rgb(39,39,39);fill-rule:nonzero;"/>
        </g>
        <g transform="matrix(2.40783,0,0,2.40783,-243.276,-100.555)">
            <path d="M256.333,213.81L311.365,208.339" style="fill:none;fill-rule:nonzero;"/>
        </g>
        <g transform="matrix(2.40783,0,0,2.40783,-243.276,-100.555)">
            <path d="M256.753,218.039L311.785,212.568C314.12,212.336 315.826,210.253 315.594,207.919C315.362,205.584 313.279,203.878 310.945,204.11L255.913,209.581C253.578,209.813 251.872,211.896 252.104,214.23C252.336,216.565 254.419,218.271 256.753,218.039Z"/>
        </g>
    </g>
</svg>
