<?xml version="1.0" encoding="UTF-8"?>
<!DOCTYPE svg PUBLIC "-//W3C//DTD SVG 1.1//EN" "http://www.w3.org/Graphics/SVG/1.1/DTD/svg11.dtd">
<svg version="1.1" xmlns="http://www.w3.org/2000/svg" xmlns:xlink="http://www.w3.org/1999/xlink" x="0" y="0" viewBox="0, 0, 530, 530">
  <defs>
    <linearGradient id="Gradient_1" gradientUnits="userSpaceOnUse" x1="265" y1="15" x2="265" y2="515">
      <stop offset="0" stop-color="#00A6FF"/>
      <stop offset="0.265" stop-color="#74D1F4"/>
      <stop offset="0.509" stop-color="#ABF8FF"/>
      <stop offset="0.822" stop-color="#FFF16A"/>
    </linearGradient>
    <clipPath id="Clip_1">
      <path d="M9,9 L521,9 L521,521 L9,521 z M327.781,15 L207.912,15 L267.024,269.018 L84.382,19.897 C51.829,30.017 27.46,56.902 18.335,89.408 L267.024,269.018 L267.024,269.018 L15,210.08 L15,325.791 L267.024,269.018 L21.057,449.347 C24.423,457.318 24.982,459.451 29.477,466.854 C43.003,489.128 65.817,506.508 91.433,512.143 L267.024,269.018 L207.53,515 L325.929,515 L267.024,269.018 L444.116,510.569 C475.336,500.864 500.935,476.342 510.367,444.766 L267.024,269.018 L515,325.336 L515,210.171 L267.024,269.018 L511.729,89.613 C509.193,81.456 508.889,79.436 505.139,71.646 C493.613,47.7 472.143,28.278 446.702,20.234 L267.024,269.018 L327.781,15 z"/>
    </clipPath>
    <filter id="Shadow_2">
      <feGaussianBlur in="SourceAlpha" stdDeviation="2.5"/>
      <feOffset dx="0" dy="0" result="offsetblur"/>
      <feFlood flood-color="#FFFFFF"/>
      <feComposite in2="offsetblur" operator="in"/>
    </filter>
    <filter id="Shadow_3">
      <feGaussianBlur in="SourceAlpha" stdDeviation="1.5"/>
      <feOffset dx="0" dy="0" result="offsetblur"/>
      <feFlood flood-color="#000000"/>
      <feComposite in2="offsetblur" operator="in"/>
    </filter>
    <filter id="Shadow_4">
      <feGaussianBlur in="SourceAlpha" stdDeviation="0.75"/>
      <feOffset dx="-1.5" dy="0" result="offsetblur"/>
      <feFlood flood-color="#000000"/>
      <feComposite in2="offsetblur" operator="in"/>
    </filter>
    <filter id="Shadow_5">
      <feGaussianBlur in="SourceAlpha" stdDeviation="2.5"/>
      <feOffset dx="0" dy="0" result="offsetblur"/>
      <feFlood flood-color="#000000"/>
      <feComposite in2="offsetblur" operator="in"/>
    </filter>
    <filter id="Shadow_6">
      <feGaussianBlur in="SourceAlpha" stdDeviation="5.25"/>
      <feOffset dx="-2.5" dy="-2" result="offsetblur"/>
      <feFlood flood-color="#000000"/>
      <feComposite in2="offsetblur" operator="in"/>
    </filter>
    <clipPath id="Clip_7">
      <path d="M223.183,171.804 C233.002,171.975 240.82,180.23 240.645,190.242 C240.47,200.254 232.369,208.232 222.55,208.06 C212.732,207.889 204.914,199.634 205.089,189.622 C205.263,179.61 213.365,171.632 223.183,171.804 z"/>
    </clipPath>
    <filter id="InnerShadow_8">
      <feGaussianBlur in="SourceAlpha" stdDeviation="4"/>
      <feOffset dx="0" dy="6.5" result="offsetblur"/>
      <feFlood flood-color="#000000"/>
      <feComposite in2="offsetblur" operator="in"/>
    </filter>
    <clipPath id="Clip_9">
      <path d="M356.074,160.207 C365.5,160.371 373.008,168.159 372.843,177.601 C372.678,187.044 364.903,194.565 355.477,194.4 C346.051,194.236 338.544,186.448 338.708,177.006 C338.873,167.563 346.648,160.042 356.074,160.207 z"/>
    </clipPath>
    <filter id="InnerShadow_10">
      <feGaussianBlur in="SourceAlpha" stdDeviation="4"/>
      <feOffset dx="0" dy="6.5" result="offsetblur"/>
      <feFlood flood-color="#000000"/>
      <feComposite in2="offsetblur" operator="in"/>
    </filter>
  </defs>
  <g id="背景">
    <path d="M415,15 C471.245,15.735 513.59,59.261 515,114.996 L515,415.004 C514.263,471.248 470.737,513.59 415.004,515 L114.996,515 C58.75,514.263 16.409,470.735 15,415 L15,115 C15,59.772 59.772,15 115,15 L415,15 z" fill="url(#Gradient_1)" id="グラデーション"/>
    <g id="旭日旗">
      <path d="M327.781,15 L267.024,269.018 L446.702,20.234 C472.143,28.278 493.613,47.7 505.139,71.646 C508.889,79.436 509.193,81.456 511.729,89.613 L267.024,269.018 L515,210.171 L515,325.336 L267.024,269.018 L510.367,444.766 C500.935,476.342 475.336,500.864 444.116,510.569 L267.024,269.018 L325.929,515 L207.53,515 L267.024,269.018 L91.433,512.143 C65.817,506.508 43.003,489.128 29.477,466.854 C24.982,459.451 24.423,457.318 21.057,449.347 L267.024,269.018 L15,325.791 L15,210.08 L267.024,269.018 L267.024,269.018 L18.335,89.408 C27.46,56.902 51.829,30.017 84.382,19.897 L267.024,269.018 L207.912,15 L327.781,15 z" fill="#FFFFFF" fill-opacity="0.435"/>
      <g>
        <path d="M327.781,15 L267.024,269.018 L446.702,20.234 C472.143,28.278 493.613,47.7 505.139,71.646 C508.889,79.436 509.193,81.456 511.729,89.613 L267.024,269.018 L515,210.171 L515,325.336 L267.024,269.018 L510.367,444.766 C500.935,476.342 475.336,500.864 444.116,510.569 L267.024,269.018 L325.929,515 L207.53,515 L267.024,269.018 L91.433,512.143 C65.817,506.508 43.003,489.128 29.477,466.854 C24.982,459.451 24.423,457.318 21.057,449.347 L267.024,269.018 L15,325.791 L15,210.08 L267.024,269.018 L267.024,269.018 L18.335,89.408 C27.46,56.902 51.829,30.017 84.382,19.897 L267.024,269.018 L207.912,15 L327.781,15 z" fill="rgba(0,0,0,0.287)" clip-path="url(#Clip_1)" filter="url(#Shadow_2)"/>
        <path d="M326.565,14.709 L265.808,268.727 C265.49,270.059 267.236,270.86 268.037,269.75 L447.715,20.966 L446.325,21.426 C471.09,29.257 492.47,48.208 504.013,72.188 C505.736,75.768 506.759,78.182 507.629,80.673 C507.83,81.249 508.028,81.844 508.238,82.497 C508.606,83.645 510.131,88.686 510.535,89.985 L510.99,88.605 L266.285,268.01 C265.186,268.815 265.986,270.549 267.312,270.234 L515.288,211.387 L513.75,210.171 L513.75,325.336 L515.277,324.117 L267.301,267.799 C265.973,267.497 265.188,269.234 266.292,270.031 L509.635,445.78 L509.169,444.408 C499.997,475.117 475.058,499.641 443.745,509.376 L445.124,509.83 L268.032,268.279 C267.225,267.178 265.49,267.982 265.808,269.309 L324.713,515.291 L325.929,513.75 L207.53,513.75 L208.745,515.294 L268.239,269.312 C268.561,267.979 266.813,267.174 266.01,268.286 L90.42,511.411 L91.701,510.922 C66.921,505.471 44.18,488.659 30.546,466.205 C28.526,462.878 27.266,460.562 26.151,458.163 C25.915,457.656 25.68,457.133 25.434,456.569 C24.894,455.331 22.691,450.004 22.208,448.861 L21.796,450.356 L267.763,270.026 C268.856,269.225 268.071,267.5 266.749,267.798 L14.725,324.572 L16.25,325.791 L16.25,210.08 L14.715,211.297 L266.739,270.235 C268.069,270.546 268.863,268.804 267.756,268.004 L19.066,88.395 L19.538,89.746 C28.733,56.995 53.212,30.896 84.753,21.091 L83.374,20.636 L266.016,269.757 C266.82,270.854 268.549,270.059 268.241,268.734 L209.129,14.717 L207.912,16.25 L327.781,16.25 L326.565,14.709 z M328.997,15.291 C329.185,14.505 328.589,13.75 327.781,13.75 L207.912,13.75 C207.107,13.75 206.512,14.499 206.694,15.283 L265.806,269.301 L268.032,268.279 L85.39,19.158 C85.075,18.728 84.521,18.545 84.011,18.704 C51.644,28.766 26.551,55.519 17.131,89.07 C16.989,89.575 17.178,90.115 17.603,90.422 L266.292,270.031 L267.308,267.801 L15.285,208.863 C14.5,208.679 13.75,209.275 13.75,210.08 L13.75,325.791 C13.75,326.592 14.493,327.187 15.275,327.011 L267.298,270.237 L266.285,268.01 L20.318,448.339 C19.851,448.682 19.68,449.3 19.905,449.834 C20.38,450.957 22.591,456.304 23.143,457.569 C23.396,458.15 23.639,458.691 23.884,459.217 C25.04,461.706 26.344,464.101 28.409,467.502 C42.391,490.529 65.702,507.762 91.164,513.364 C91.651,513.471 92.155,513.279 92.446,512.875 L268.037,269.75 L265.809,268.724 L206.315,514.706 C206.125,515.493 206.721,516.25 207.53,516.25 L325.929,516.25 C326.737,516.25 327.333,515.495 327.145,514.709 L268.239,268.727 L266.016,269.757 L443.108,511.308 C443.424,511.739 443.978,511.921 444.487,511.763 C476.583,501.785 502.15,476.643 511.565,445.124 C511.717,444.614 511.53,444.064 511.099,443.753 L267.756,268.004 L266.747,270.237 L514.723,326.555 C515.505,326.733 516.25,326.138 516.25,325.336 L516.25,210.171 C516.25,209.364 515.496,208.768 514.711,208.955 L266.735,267.801 L267.763,270.026 L512.468,90.622 C512.898,90.306 513.081,89.752 512.923,89.242 C512.524,87.961 510.994,82.905 510.618,81.734 C510.403,81.061 510.198,80.446 509.989,79.849 C509.086,77.261 508.026,74.763 506.265,71.104 C494.428,46.512 472.511,27.084 447.078,19.042 C446.564,18.88 446.004,19.065 445.688,19.502 L266.01,268.286 L268.24,269.308 L328.997,15.291 z" fill="rgba(0,0,0,0.287)" clip-path="url(#Clip_1)" filter="url(#Shadow_2)"/>
      </g>
    </g>
  </g>
  <g id="本体">
    <g id="白枠">
      <path d="M263.681,37.005 L269.205,37.023 C269.299,37.024 269.392,37.025 269.486,37.027 C328.733,38.298 383.482,63.316 424.961,106.104 C460.849,143.944 486.622,193.392 492.84,245.596 L513.775,243.251 L515,243.18 L515,300.824 L492.518,331.444 L485.248,486.011 C466.777,505.052 441.155,514.338 415,515 L115,515 C87.797,515.041 62.509,503.769 43.415,484.674 L37.152,362.692 C18.613,340.875 25.997,349.565 15,336.622 L15,280.032 L35.935,278.711 C39.03,219.497 60.94,162.32 98.929,116.779 C140.342,68.292 197.59,39.589 263.021,37.017 L263.022,37.046 L263.681,37.005 z M263.985,68.006 C208.232,70.008 158.991,95.223 122.501,136.912 C86.346,179.238 68.351,233.855 66.49,289.019 L66.47,294.37 C66.319,304.883 56.502,311.785 46.457,309.109 L33.022,309.957 C43.405,322.177 53.789,334.398 64.174,346.617 C66.378,349.212 67.668,352.46 67.842,355.86 L74.695,489.33 C87.073,496.533 101.284,499.733 115.5,500 L415.235,500 C428.452,499.434 442.266,497.343 453.989,490.797 L461.772,325.313 C461.915,322.266 462.955,319.328 464.761,316.868 L494.309,276.625 L480.829,278.135 C472.096,279.113 464.298,272.644 463.646,263.881 C459.837,212.666 437.857,163.946 402.702,127.681 C367.556,90.969 319.583,69.747 268.905,68.022 L263.985,68.006 z" filter="url(#Shadow_3)" fill="rgba(0,0,0,0.242)"/>
      <path d="M263.681,37.005 L269.205,37.023 C269.299,37.024 269.392,37.025 269.486,37.027 C328.733,38.298 383.482,63.316 424.961,106.104 C460.849,143.944 486.622,193.392 492.84,245.596 L513.775,243.251 L515,243.18 L515,300.824 L492.518,331.444 L485.248,486.011 C466.777,505.052 441.155,514.338 415,515 L115,515 C87.797,515.041 62.509,503.769 43.415,484.674 L37.152,362.692 C18.613,340.875 25.997,349.565 15,336.622 L15,280.032 L35.935,278.711 C39.03,219.497 60.94,162.32 98.929,116.779 C140.342,68.292 197.59,39.589 263.021,37.017 L263.022,37.046 L263.681,37.005 z M263.985,68.006 C208.232,70.008 158.991,95.223 122.501,136.912 C86.346,179.238 68.351,233.855 66.49,289.019 L66.47,294.37 C66.319,304.883 56.502,311.785 46.457,309.109 L33.022,309.957 C43.405,322.177 53.789,334.398 64.174,346.617 C66.378,349.212 67.668,352.46 67.842,355.86 L74.695,489.33 C87.073,496.533 101.284,499.733 115.5,500 L415.235,500 C428.452,499.434 442.266,497.343 453.989,490.797 L461.772,325.313 C461.915,322.266 462.955,319.328 464.761,316.868 L494.309,276.625 L480.829,278.135 C472.096,279.113 464.298,272.644 463.646,263.881 C459.837,212.666 437.857,163.946 402.702,127.681 C367.556,90.969 319.583,69.747 268.905,68.022 L263.985,68.006 z" fill="#FFFFFF"/>
    </g>
    <g id="羽根">
      <path d="M515,258.405 L515,273.904 L463.442,343.508 L463.322,264.143 L515,258.405 z" filter="url(#Shadow_4)" fill="rgba(0,0,0,0.488)"/>
      <path d="M463.322,264.143 L515,258.405 L515,273.904 L463.442,343.508 z" fill="#B18700"/>
    </g>
    <g id="もち">
      <path d="M263.881,50.915 L269.406,50.933 C387.581,52.996 482.718,156.998 480.405,289.527 C478.109,385.601 427.834,473.759 339.648,515 L187.704,515 C97.791,476.619 49.222,381.845 49.791,287.045 C52.686,164.951 136.863,55.896 263.881,50.915 z" filter="url(#Shadow_5)" fill="rgba(0,0,0,0.338)"/>
      <path d="M263.881,50.915 L269.406,50.933 C387.581,52.996 482.718,156.998 480.405,289.527 C478.109,385.601 427.834,473.759 339.648,515 L187.704,515 C97.791,476.619 49.222,381.845 49.791,287.045 C52.686,164.951 136.863,55.896 263.881,50.915 z" fill="#90E200"/>
    </g>
    <g id="陰付けるやつ">
      <path d="M145.191,285.923 L145.404,285.94 C145.68,286.003 145.538,285.964 145.828,286.062 C146.432,286.095 146.067,286.033 146.882,286.41 C147.735,286.691 147.428,286.488 147.886,286.874 C148.544,287.178 148.109,286.941 149.055,287.784 L198.477,346.123 L198.487,346.123 L477.507,324.451 L468.662,499.301 L466.323,500.811 C455.672,506.596 461.138,503.962 449.92,508.705 L448.678,509.151 L442.922,510.941 C433.874,513.735 424.403,514.505 415,515 L115,515 L111.125,514.902 L107.421,514.623 L102.142,514.088 L97.881,513.461 L93.314,512.527 C88.857,511.542 90.913,512.087 87.13,510.957 L82.03,509.371 L78.234,507.924 L74,506.134 L70.129,504.315 L67.185,502.716 C61.986,499.767 64.379,501.231 59.973,498.379 L52.619,355.142 L38.543,339.51 L36.38,337.128 L34.173,334.698 L31.939,332.242 L15,313.66 L15,295.116 L144.34,285.925 C144.624,285.935 144.908,285.929 145.192,285.924 L145.191,285.923 z" filter="url(#Shadow_6)" fill="rgba(0,0,0,0.24)"/>
      <path d="M115,515 L111.125,514.902 L107.421,514.623 L102.142,514.088 L97.881,513.461 L93.314,512.527 C88.857,511.542 90.913,512.087 87.13,510.957 L82.03,509.371 L78.234,507.924 L74,506.134 L70.129,504.315 L67.185,502.716 C61.986,499.767 64.379,501.231 59.973,498.379 L52.619,355.142 L38.543,339.51 L36.38,337.128 L34.173,334.699 L31.939,332.242 L15,313.66 L15,295.116 L144.34,285.925 C144.624,285.935 144.908,285.929 145.192,285.924 L145.191,285.924 L145.404,285.941 C145.68,286.003 145.538,285.964 145.828,286.062 C146.432,286.095 146.067,286.033 146.882,286.41 C147.735,286.691 147.428,286.488 147.886,286.874 C148.544,287.178 148.109,286.941 149.055,287.784 L198.477,346.124 L198.487,346.123 L477.507,324.452 L468.662,499.301 L466.323,500.811 C455.672,506.596 461.138,503.962 449.92,508.705 L448.678,509.151 L442.922,510.941 C433.874,513.735 424.403,514.505 415,515 L115,515 z" fill="#B3855E"/>
    </g>
    <path d="M145.404,285.941 C145.68,286.003 145.538,285.964 145.828,286.063 C146.432,286.096 146.067,286.034 146.882,286.41 C147.735,286.691 147.428,286.488 147.886,286.875 C148.544,287.179 148.109,286.942 149.055,287.785 L199.047,346.797 L54.275,357.051 L15,313.661 L15,295.117 L144.34,285.925 C144.624,285.935 144.908,285.93 145.192,285.924 L145.404,285.941 z" fill="#865500" id="ぴらぴら"/>
    <path d="M198.487,346.123 L204.067,515 L115,515 C95.474,514.907 76.185,509.33 59.973,498.379 L52.615,355.065 L198.487,346.123 z" fill="#B3855E" id="側面hakoseabox"/>
    <path d="M477.507,324.452 L468.662,499.301 C452.85,510.019 433.866,514.523 415,515 L204.067,515 L198.487,346.123 L477.507,324.452 z" fill="#E1C39A" id="前面ハコ"/>
    <path d="M357.492,333.835 L365.283,515 L326.788,515 L318.73,336.894 L357.492,333.835 z" fill="#D8A800" id="表ープ"/>
    <path d="M129.553,350.152 L136.372,515 L115,515 L111.562,514.913 L104.967,351.723 L129.553,350.152 z" fill="#846300" id="陰のテープ(略して陰テ、陰キャみたいですね)"/>
    <path d="M49.75,292.945 L74.577,291.137 L129.553,350.152 C129.553,350.152 104.967,351.723 104.967,351.723 C104.967,351.723 49.75,292.945 49.75,292.945 z" fill="#643D00" id="裏側テープ"/>
    <g id="左目">
      <path d="M222.55,208.06 C212.732,207.889 204.914,199.634 205.089,189.622 C205.263,179.61 213.365,171.632 223.183,171.804 C233.002,171.975 240.82,180.23 240.645,190.242 C240.47,200.254 232.369,208.232 222.55,208.06 z" fill="#272727"/>
      <path d="M196.086,156.301 L249.648,156.301 L249.648,223.563 L196.086,223.563 z M223.183,171.804 C213.365,171.632 205.263,179.61 205.089,189.622 C204.914,199.634 212.732,207.889 222.55,208.06 C232.369,208.232 240.47,200.254 240.645,190.242 C240.82,180.23 233.002,171.975 223.183,171.804 z" clip-path="url(#Clip_7)" filter="url(#InnerShadow_8)" fill="rgba(0,0,0,1)"/>
    </g>
    <g id="右目">
      <path d="M355.477,194.4 C346.051,194.236 338.544,186.448 338.708,177.006 C338.873,167.563 346.648,160.042 356.074,160.207 C365.5,160.371 373.008,168.159 372.843,177.601 C372.678,187.044 364.903,194.565 355.477,194.4 z" fill="#272727"/>
      <path d="M329.706,144.704 L381.845,144.704 L381.845,209.903 L329.706,209.903 z M356.074,160.207 C346.648,160.042 338.873,167.563 338.708,177.006 C338.544,186.448 346.051,194.236 355.477,194.4 C364.903,194.565 372.678,187.044 372.843,177.601 C373.008,168.159 365.5,160.371 356.074,160.207 z" clip-path="url(#Clip_9)" filter="url(#InnerShadow_10)" fill="rgba(0,0,0,1)"/>
    </g>
    <path d="M271.333,228.81 L326.365,223.339" fill-opacity="0" stroke="#000000" stroke-width="8.5" stroke-linecap="round" stroke-linejoin="round" id="口"/>
  </g>
</svg>
