<?xml version="1.0" encoding="UTF-8"?>
<!DOCTYPE svg PUBLIC "-//W3C//DTD SVG 1.1//EN" "http://www.w3.org/Graphics/SVG/1.1/DTD/svg11.dtd">
<svg version="1.1" xmlns="http://www.w3.org/2000/svg" xmlns:xlink="http://www.w3.org/1999/xlink" x="0" y="0" width="330" height="320" viewBox="0, 0, 330, 320">
  <defs>
    <filter id="Shadow_1">
      <feGaussianBlur in="SourceAlpha" stdDeviation="0.413"/>
      <feOffset dx="-0.827" dy="0" result="offsetblur"/>
      <feFlood flood-color="#000000"/>
      <feComposite in2="offsetblur" operator="in"/>
    </filter>
    <filter id="Shadow_2">
      <feGaussianBlur in="SourceAlpha" stdDeviation="0.413"/>
      <feOffset dx="-0.827" dy="0" result="offsetblur"/>
      <feFlood flood-color="#000000"/>
      <feComposite in2="offsetblur" operator="in"/>
    </filter>
    <filter id="Shadow_3">
      <feGaussianBlur in="SourceAlpha" stdDeviation="1.378"/>
      <feOffset dx="0" dy="0" result="offsetblur"/>
      <feFlood flood-color="#000000"/>
      <feComposite in2="offsetblur" operator="in"/>
    </filter>
    <filter id="Shadow_4">
      <feGaussianBlur in="SourceAlpha" stdDeviation="2.893"/>
      <feOffset dx="-1.378" dy="0" result="offsetblur"/>
      <feFlood flood-color="#000000"/>
      <feComposite in2="offsetblur" operator="in"/>
    </filter>
    <filter id="Shadow_5">
      <feGaussianBlur in="SourceAlpha" stdDeviation="2.893"/>
      <feOffset dx="-1.378" dy="0" result="offsetblur"/>
      <feFlood flood-color="#000000"/>
      <feComposite in2="offsetblur" operator="in"/>
    </filter>
    <clipPath id="Clip_6">
      <path d="M142.524,90.247 C147.935,90.342 152.244,94.891 152.147,100.409 C152.051,105.927 147.586,110.323 142.175,110.229 C136.764,110.135 132.456,105.585 132.552,100.067 C132.648,94.55 137.113,90.153 142.524,90.248 z"/>
    </clipPath>
    <filter id="InnerShadow_7">
      <feGaussianBlur in="SourceAlpha" stdDeviation="2.204"/>
      <feOffset dx="0" dy="3.582" result="offsetblur"/>
      <feFlood flood-color="#000000"/>
      <feComposite in2="offsetblur" operator="in"/>
    </filter>
    <clipPath id="Clip_8">
      <path d="M215.762,83.856 C220.956,83.947 225.094,88.239 225.003,93.443 C224.912,98.646 220.628,102.791 215.433,102.701 C210.238,102.61 206.101,98.318 206.191,93.114 C206.282,87.911 210.567,83.766 215.762,83.856 z"/>
    </clipPath>
    <filter id="InnerShadow_9">
      <feGaussianBlur in="SourceAlpha" stdDeviation="2.204"/>
      <feOffset dx="0" dy="3.582" result="offsetblur"/>
      <feFlood flood-color="#000000"/>
      <feComposite in2="offsetblur" operator="in"/>
    </filter>
  </defs>
  <g id="背景">
    <g id="Shape「">
      <path d="M165.039,24.729 L168.084,24.739 C230.985,26.089 279.236,79.372 283.789,140.587 L310.594,137.585 L282.77,175.478 L277.687,283.563 L215.269,288.715 L200.657,290.2 L200.652,290.115 L133.05,296.878 L53.332,284.376 L48.607,192.349 C48.607,192.35 20.406,159.161 20.406,159.161 L47.466,157.454 L47.84,157.991 L47.852,154.928 C49.427,87.829 94.986,27.482 165.039,24.729 z" fill="#FFFFFF" fill-opacity="0.157"/>
      <path d="M165.039,24.729 L168.084,24.739 C230.985,26.089 279.236,79.372 283.789,140.587 L310.594,137.585 L282.77,175.478 L277.687,283.563 L215.269,288.715 L200.657,290.2 L200.652,290.115 L133.05,296.878 L53.332,284.376 L48.607,192.349 C48.607,192.35 20.406,159.161 20.406,159.161 L47.466,157.454 L47.84,157.991 L47.852,154.928 C49.427,87.829 94.986,27.482 165.039,24.729 z" fill-opacity="0" stroke="#FFFFFF" stroke-width="17.084" stroke-linejoin="round"/>
    </g>
    <g>
      <g>
        <path d="M258.709,137.504 L274.867,141.141 L303.828,137.925 C306.277,137.654 307.88,140.401 306.422,142.37 L274.934,184.88 C273.578,186.71 270.704,186.266 269.974,184.113 L255.403,141.131 C254.987,138.797 256.087,137.723 258.31,137.443 L258.709,137.504 z" filter="url(#Shadow_1)" fill="rgba(0,0,0,0.488)"/>
        <path d="M258.31,137.443 L258.709,137.504 L274.867,141.141 L303.828,137.925 C306.277,137.654 307.88,140.401 306.422,142.37 L274.934,184.88 C273.578,186.71 270.704,186.266 269.974,184.113 L255.403,141.131 C254.911,138.853 256.152,137.553 258.31,137.443 z" fill="#00C0D7"/>
      </g>
    </g>
    <g>
      <g>
        <path d="M258.709,137.504 L274.867,141.141 L303.828,137.925 C306.277,137.654 307.88,140.401 306.422,142.37 L274.934,184.88 C273.578,186.71 270.704,186.266 269.974,184.113 L255.403,141.131 C254.987,138.797 256.087,137.723 258.31,137.443 L258.709,137.504 z" filter="url(#Shadow_2)" fill="rgba(0,0,0,0.488)"/>
        <path d="M258.31,137.443 L258.709,137.504 L274.867,141.141 L303.828,137.925 C306.277,137.654 307.88,140.401 306.422,142.37 L274.934,184.88 C273.578,186.71 270.704,186.266 269.974,184.113 L255.403,141.131 C254.911,138.853 256.152,137.553 258.31,137.443 z" fill="#B18700"/>
      </g>
    </g>
    <path d="M46.966,156.954 L78.048,154.433 L80.788,214.824 L49.784,215.932 z" fill="#90E200"/>
    <g id="つまみ">
      <path d="M167.998,23.638 C233.126,24.775 285.557,82.092 284.282,155.13 C283.007,228.168 228.509,289.27 163.381,288.134 C98.254,286.997 45.691,226.801 46.966,153.762 C48.241,80.724 102.871,22.502 167.998,23.638 z" filter="url(#Shadow_3)" fill="rgba(0,0,0,0.338)"/>
      <path d="M163.381,288.134 C98.254,286.997 45.691,226.801 46.966,153.762 C48.241,80.724 102.871,22.502 167.998,23.638 C233.126,24.775 285.557,82.092 284.282,155.13 C283.007,228.168 228.509,289.27 163.381,288.134 z" fill="#90E200"/>
    </g>
    <g id="影くん">
      <path d="M99.542,153.144 L99.659,153.153 C99.811,153.188 99.733,153.166 99.893,153.22 C100.226,153.238 100.025,153.204 100.473,153.412 C100.944,153.567 100.775,153.455 101.027,153.668 C101.39,153.835 101.15,153.705 101.671,154.169 L128.908,186.321 L128.914,186.321 L282.685,174.377 L277.187,283.062 L132.55,296.377 L132.55,296.377 L53.247,283.275 L48.524,191.291 L48.398,191.148 L48.104,190.816 L47.782,190.454 L47.433,190.063 L47.059,189.645 L46.661,189.2 L46.24,188.732 L45.798,188.24 L45.336,187.727 L44.854,187.193 L44.356,186.64 L43.84,186.07 L43.31,185.483 L42.765,184.882 L42.208,184.266 L41.639,183.638 L40.767,182.677 L39.575,181.363 L38.358,180.025 L37.127,178.671 L35.891,177.313 L34.66,175.961 L33.443,174.625 L32.25,173.317 L31.378,172.359 L30.808,171.735 L30.25,171.124 L29.705,170.526 L29.174,169.944 L28.657,169.378 L28.157,168.83 L27.675,168.302 L27.211,167.794 L26.767,167.308 L26.345,166.846 L25.944,166.407 L25.568,165.995 L25.216,165.61 L24.889,165.253 L24.591,164.926 L24.32,164.63 L24.079,164.367 L23.869,164.137 L23.691,163.942 L23.546,163.784 L23.436,163.663 L23.361,163.581 L23.329,163.546 L23.32,163.536 L23.319,163.535 C22.149,162.257 22.261,160.296 23.569,159.156 C24.091,158.7 24.753,158.426 25.452,158.376 L99.073,153.145 C99.229,153.15 99.386,153.147 99.542,153.144 z" filter="url(#Shadow_4)" fill="rgba(0,0,0,0.24)"/>
      <path d="M282.685,174.377 L277.187,283.062 L132.55,296.377 L132.55,296.377 L53.247,283.275 L48.524,191.291 L48.398,191.148 L48.104,190.816 L47.782,190.454 L47.433,190.063 L47.059,189.645 L46.661,189.2 L46.24,188.732 L45.798,188.24 L45.336,187.727 L44.855,187.193 L44.356,186.64 L43.84,186.07 L43.31,185.483 L42.765,184.882 L42.208,184.266 L41.639,183.638 L40.767,182.677 L39.575,181.363 L38.358,180.025 L37.127,178.671 L35.891,177.313 L34.66,175.961 L33.443,174.625 L32.25,173.317 L31.378,172.36 L30.808,171.735 L30.25,171.124 L29.705,170.526 L29.174,169.944 L28.657,169.378 L28.158,168.83 L27.675,168.302 L27.211,167.794 L26.768,167.308 L26.345,166.846 L25.944,166.407 L25.568,165.995 L25.216,165.61 L24.89,165.253 L24.591,164.926 L24.32,164.63 L24.079,164.367 L23.869,164.137 L23.691,163.942 L23.546,163.784 L23.436,163.663 L23.361,163.582 L23.329,163.547 L23.32,163.536 L23.319,163.535 C22.149,162.257 22.261,160.296 23.569,159.156 C24.091,158.7 24.753,158.426 25.452,158.376 L99.073,153.145 C99.229,153.15 99.386,153.147 99.542,153.144 L99.659,153.153 C99.811,153.188 99.733,153.166 99.893,153.22 C100.226,153.238 100.025,153.204 100.473,153.412 C100.944,153.567 100.775,153.455 101.027,153.668 C101.39,153.835 101.15,153.705 101.671,154.169 L128.908,186.321 L128.914,186.321 L282.685,174.377 z" fill="#B3855E"/>
    </g>
    <g>
      <path d="M99.542,153.145 C99.77,153.165 99.652,153.142 99.893,153.221 C100.226,153.239 100.025,153.205 100.473,153.412 C100.944,153.567 100.775,153.456 101.027,153.668 C101.39,153.836 101.15,153.705 101.671,154.17 L129.222,186.692 C130.394,187.969 130.669,187.833 129.364,188.976 C128.829,189.444 128.147,189.721 127.43,189.761 L127.426,189.762 L127.399,189.763 L127.345,189.766 L127.264,189.771 L127.157,189.777 L127.025,189.784 L126.867,189.793 L126.685,189.804 L126.479,189.815 L126.248,189.828 L125.995,189.843 L125.718,189.858 L125.418,189.875 L125.097,189.893 L124.753,189.913 L124.389,189.933 L124.003,189.955 L123.597,189.978 L123.172,190.002 L122.726,190.027 L122.022,190.066 L121.019,190.123 L119.945,190.183 L118.805,190.247 L117.6,190.315 L116.336,190.385 L115.014,190.459 L113.639,190.536 L112.215,190.616 L110.744,190.698 L109.229,190.782 L107.676,190.869 L106.086,190.957 L104.463,191.047 L102.811,191.139 L101.134,191.232 L98.576,191.373 L95.108,191.564 L91.599,191.757 L88.076,191.949 L84.566,192.14 L81.098,192.327 L78.54,192.465 L76.862,192.555 L75.21,192.643 L73.587,192.729 L71.996,192.813 L70.442,192.895 L68.927,192.974 L67.455,193.05 L66.03,193.124 L64.654,193.194 L63.331,193.261 L62.065,193.324 L60.859,193.384 L59.717,193.44 L58.641,193.491 L57.635,193.539 L56.928,193.571 L56.48,193.592 L56.052,193.611 L55.643,193.628 L55.255,193.645 L54.887,193.66 L54.54,193.674 L54.214,193.687 L53.91,193.698 L53.627,193.708 L53.365,193.717 L53.126,193.724 L52.908,193.73 L52.711,193.734 L52.534,193.737 L52.374,193.739 L52.226,193.738 L52.076,193.735 L51.884,193.724 L51.449,193.665 L49.816,192.8 C49.375,192.299 49.598,192.598 49.19,191.871 L49.256,192.046 L49.414,192.308 L49.437,192.344 L49.375,192.27 L49.256,192.13 L49.094,191.942 L48.895,191.713 L48.662,191.448 L48.398,191.148 L48.104,190.816 L47.782,190.454 L47.433,190.063 L47.059,189.645 L46.661,189.2 L46.24,188.732 L45.798,188.24 L45.336,187.727 L44.855,187.193 L44.356,186.64 L43.84,186.07 L43.31,185.483 L42.765,184.882 L42.208,184.266 L41.639,183.639 L40.767,182.677 L39.575,181.363 L38.358,180.025 L37.127,178.671 L35.891,177.313 L34.66,175.961 L33.443,174.625 L32.25,173.317 L31.378,172.36 L30.808,171.735 L30.25,171.124 L29.705,170.526 L29.174,169.944 L28.657,169.379 L28.158,168.831 L27.675,168.303 L27.211,167.795 L26.767,167.309 L26.345,166.846 L25.944,166.408 L25.568,165.996 L25.216,165.61 L24.89,165.254 L24.591,164.927 L24.32,164.631 L24.079,164.367 L23.869,164.138 L23.691,163.943 L23.546,163.785 L23.436,163.664 L23.361,163.582 L23.329,163.547 L23.32,163.537 L23.319,163.536 C22.149,162.257 22.261,160.297 23.569,159.156 C24.091,158.701 24.753,158.427 25.452,158.377 L99.073,153.145 C99.377,153.15 99.221,153.15 99.542,153.145 z" fill="#00859A"/>
    </g>
    <path d="M53.247,283.276 L132.55,296.378 L128.914,186.321 L48.522,191.249 L53.247,283.276 z" fill="#69D8D6" id="左側パーツ"/>
    <path d="M128.914,186.321 L132.55,296.378 L277.187,283.063 L282.685,174.378 L128.914,186.321 z" fill="#CAF9FF" id="前面パーツ"/>
    <path d="M195.181,181.234 L216.544,179.549 L221.214,288.149 L200.109,290.156 L195.181,181.234 z" fill="#008FE2" id="前面テープ"/>
    <path d="M77.374,189.407 L90.923,188.541 L95.127,290.156 L81.355,287.922 L77.374,189.407 z" fill="#0090A4" id="左側テープ"/>
    <path d="M46.943,157.014 L60.626,156.018 L90.923,188.541 C90.923,188.541 77.374,189.407 77.374,189.407 C77.374,189.407 46.943,157.014 46.943,157.014 z" fill="#0039B1" id="裏側テープ"/>
    <path d="M46.966,156.954 L78.048,154.433 L80.788,214.824 L49.784,215.932 z" fill="#90E200"/>
    <g id="影くん">
      <path d="M99.542,153.144 L99.659,153.154 C99.811,153.188 99.733,153.166 99.893,153.221 C100.226,153.239 100.025,153.204 100.473,153.412 C100.944,153.567 100.775,153.455 101.027,153.668 C101.39,153.835 101.15,153.705 101.671,154.169 L128.908,186.321 L128.914,186.321 L282.685,174.377 L277.187,283.062 L132.55,296.377 L132.55,296.377 L53.247,283.275 L48.524,191.291 L48.398,191.148 L48.104,190.816 L47.782,190.454 L47.433,190.063 L47.059,189.645 L46.661,189.2 L46.24,188.732 L45.798,188.24 L45.336,187.727 L44.854,187.193 L44.356,186.64 L43.84,186.07 L43.31,185.483 L42.765,184.882 L42.208,184.266 L41.639,183.638 L40.767,182.677 L39.575,181.363 L38.358,180.025 L37.127,178.671 L35.891,177.313 L34.66,175.961 L33.443,174.625 L32.25,173.317 L31.378,172.36 L30.808,171.735 L30.25,171.124 L29.705,170.526 L29.174,169.944 L28.657,169.378 L28.157,168.83 L27.675,168.302 L27.211,167.794 L26.767,167.308 L26.345,166.846 L25.944,166.408 L25.568,165.995 L25.216,165.61 L24.889,165.253 L24.591,164.926 L24.32,164.63 L24.079,164.367 L23.869,164.137 L23.691,163.942 L23.546,163.784 L23.436,163.663 L23.361,163.582 L23.329,163.547 L23.32,163.536 L23.319,163.535 C22.149,162.257 22.261,160.296 23.569,159.156 C24.091,158.7 24.753,158.426 25.452,158.377 L99.073,153.145 C99.229,153.15 99.386,153.147 99.542,153.144 z" filter="url(#Shadow_5)" fill="rgba(0,0,0,0.24)"/>
      <path d="M282.685,174.378 L277.187,283.062 L132.55,296.377 L132.55,296.377 L53.247,283.275 L48.524,191.291 L48.398,191.148 L48.104,190.816 L47.782,190.454 L47.433,190.063 L47.059,189.645 L46.661,189.2 L46.24,188.732 L45.798,188.24 L45.336,187.727 L44.855,187.193 L44.356,186.64 L43.84,186.07 L43.31,185.483 L42.765,184.882 L42.208,184.266 L41.639,183.638 L40.767,182.677 L39.575,181.363 L38.358,180.025 L37.127,178.671 L35.891,177.313 L34.66,175.961 L33.443,174.625 L32.25,173.317 L31.378,172.36 L30.808,171.735 L30.25,171.124 L29.705,170.526 L29.174,169.944 L28.657,169.378 L28.158,168.83 L27.675,168.302 L27.211,167.794 L26.768,167.308 L26.345,166.846 L25.944,166.408 L25.568,165.995 L25.216,165.61 L24.89,165.253 L24.591,164.926 L24.32,164.63 L24.079,164.367 L23.869,164.137 L23.691,163.942 L23.546,163.784 L23.436,163.663 L23.361,163.582 L23.329,163.547 L23.32,163.536 L23.319,163.535 C22.149,162.257 22.261,160.296 23.569,159.156 C24.091,158.7 24.753,158.426 25.452,158.377 L99.073,153.145 C99.229,153.15 99.386,153.147 99.542,153.144 L99.659,153.154 C99.811,153.188 99.733,153.166 99.893,153.221 C100.226,153.239 100.025,153.204 100.473,153.412 C100.944,153.567 100.775,153.455 101.027,153.668 C101.39,153.835 101.15,153.705 101.671,154.169 L128.908,186.321 L128.914,186.321 L282.685,174.378 z" fill="#B3855E"/>
    </g>
    <g>
      <path d="M99.542,153.145 C99.77,153.165 99.652,153.142 99.893,153.221 C100.226,153.239 100.025,153.205 100.473,153.412 C100.944,153.567 100.775,153.456 101.027,153.668 C101.39,153.836 101.15,153.705 101.671,154.17 L129.222,186.692 C130.394,187.969 130.669,187.833 129.364,188.976 C128.829,189.444 128.147,189.721 127.43,189.761 L127.426,189.762 L127.399,189.763 L127.345,189.766 L127.264,189.771 L127.157,189.777 L127.025,189.784 L126.867,189.793 L126.685,189.804 L126.479,189.815 L126.248,189.828 L125.995,189.843 L125.718,189.858 L125.418,189.875 L125.097,189.893 L124.753,189.913 L124.389,189.933 L124.003,189.955 L123.597,189.978 L123.172,190.002 L122.726,190.027 L122.022,190.066 L121.019,190.123 L119.945,190.183 L118.805,190.247 L117.6,190.315 L116.336,190.385 L115.014,190.459 L113.639,190.536 L112.215,190.616 L110.744,190.698 L109.229,190.782 L107.676,190.869 L106.086,190.957 L104.463,191.047 L102.811,191.139 L101.134,191.232 L98.576,191.373 L95.108,191.564 L91.599,191.757 L88.076,191.949 L84.566,192.14 L81.098,192.327 L78.54,192.465 L76.862,192.555 L75.21,192.643 L73.587,192.729 L71.996,192.813 L70.442,192.895 L68.927,192.974 L67.455,193.05 L66.03,193.124 L64.654,193.194 L63.331,193.261 L62.065,193.324 L60.859,193.384 L59.717,193.44 L58.641,193.491 L57.635,193.539 L56.928,193.571 L56.48,193.592 L56.052,193.611 L55.643,193.628 L55.255,193.645 L54.887,193.66 L54.54,193.674 L54.214,193.687 L53.91,193.698 L53.627,193.708 L53.365,193.717 L53.126,193.724 L52.908,193.73 L52.711,193.734 L52.534,193.737 L52.374,193.739 L52.226,193.738 L52.076,193.735 L51.884,193.724 L51.449,193.665 L49.816,192.8 C49.375,192.299 49.598,192.598 49.19,191.871 L49.256,192.046 L49.414,192.308 L49.437,192.344 L49.375,192.27 L49.256,192.13 L49.094,191.942 L48.895,191.713 L48.662,191.448 L48.398,191.148 L48.104,190.816 L47.782,190.454 L47.433,190.063 L47.059,189.645 L46.661,189.2 L46.24,188.732 L45.798,188.24 L45.336,187.727 L44.855,187.193 L44.356,186.64 L43.84,186.07 L43.31,185.483 L42.765,184.882 L42.208,184.266 L41.639,183.639 L40.767,182.677 L39.575,181.363 L38.358,180.025 L37.127,178.671 L35.891,177.313 L34.66,175.961 L33.443,174.625 L32.25,173.317 L31.378,172.36 L30.808,171.735 L30.25,171.124 L29.705,170.526 L29.174,169.944 L28.657,169.379 L28.158,168.831 L27.675,168.303 L27.211,167.795 L26.767,167.309 L26.345,166.846 L25.944,166.408 L25.568,165.996 L25.216,165.61 L24.89,165.254 L24.591,164.927 L24.32,164.631 L24.079,164.367 L23.869,164.138 L23.691,163.943 L23.546,163.785 L23.436,163.664 L23.361,163.582 L23.329,163.547 L23.32,163.537 L23.319,163.536 C22.149,162.257 22.261,160.297 23.569,159.156 C24.091,158.701 24.753,158.427 25.452,158.377 L99.073,153.145 C99.377,153.15 99.221,153.15 99.542,153.145 z" fill="#865500"/>
    </g>
    <path d="M53.247,283.276 L132.55,296.378 L128.914,186.321 L48.522,191.249 L53.247,283.276 z" fill="#B3855E" id="左側パーツ"/>
    <path d="M128.914,186.321 L132.55,296.378 L277.187,283.063 L282.685,174.378 L128.914,186.321 z" fill="#E1C39A" id="前面パーツ"/>
    <path d="M195.181,181.234 L216.544,179.549 L221.214,288.149 L200.109,290.156 L195.181,181.234 z" fill="#D8A800" id="前面テープ"/>
    <path d="M77.374,189.407 L90.923,188.541 L95.127,290.156 L81.355,287.922 L77.374,189.407 z" fill="#846300" id="左側テープ"/>
    <path d="M46.943,157.014 L60.626,156.018 L90.923,188.541 C90.923,188.541 77.374,189.407 77.374,189.407 C77.374,189.407 46.943,157.014 46.943,157.014 z" fill="#643D00" id="裏側テープ"/>
    <g id="左目">
      <path d="M142.175,110.229 C136.764,110.135 132.456,105.585 132.552,100.067 C132.648,94.55 137.113,90.153 142.524,90.248 C147.935,90.342 152.244,94.891 152.147,100.409 C152.051,105.927 147.586,110.323 142.175,110.229 z" fill="#272727"/>
      <path d="M127.142,81.255 L157.558,81.255 L157.558,119.222 L127.142,119.222 z M142.524,90.248 C137.113,90.153 132.648,94.55 132.552,100.067 C132.456,105.585 136.764,110.135 142.175,110.229 C147.586,110.323 152.051,105.927 152.147,100.409 C152.244,94.891 147.935,90.342 142.524,90.247 z" clip-path="url(#Clip_6)" filter="url(#InnerShadow_7)" fill="rgba(0,0,0,1)"/>
    </g>
    <g id="右目">
      <path d="M215.433,102.701 C210.238,102.61 206.101,98.318 206.191,93.114 C206.282,87.911 210.567,83.766 215.762,83.856 C220.956,83.947 225.094,88.239 225.003,93.443 C224.912,98.646 220.628,102.791 215.433,102.701 z" fill="#272727"/>
      <path d="M200.781,74.864 L230.414,74.864 L230.414,111.693 L200.781,111.693 z M215.762,83.856 C210.567,83.766 206.282,87.911 206.191,93.114 C206.101,98.318 210.238,102.61 215.433,102.701 C220.628,102.791 224.912,98.646 225.003,93.443 C225.094,88.239 220.956,83.947 215.762,83.856 z" clip-path="url(#Clip_8)" filter="url(#InnerShadow_9)" fill="rgba(0,0,0,1)"/>
    </g>
    <path d="M169.285,121.889 L199.613,118.874" fill-opacity="0" stroke="#000000" stroke-width="4.684" stroke-linecap="round" stroke-linejoin="round"/>
  </g>
</svg>
