<?xml version="1.0" encoding="UTF-8"?>
<!DOCTYPE svg PUBLIC "-//W3C//DTD SVG 1.1//EN" "http://www.w3.org/Graphics/SVG/1.1/DTD/svg11.dtd">
<svg version="1.1" xmlns="http://www.w3.org/2000/svg" xmlns:xlink="http://www.w3.org/1999/xlink" x="0" y="0" width="400" height="400" viewBox="0, 0, 400, 400">
  <g id="Dark_Blue">
    <path d="M200,400 C89.543,400 0,310.457 0,200 C0,89.543 89.543,0 200,-0 C310.457,-0 400,89.543 400,200 C400,310.457 310.457,400 200,400 z" fill="#1EA1F2"/>
    <path d="M153.62,301.59 C247.96,301.59 299.56,223.43 299.56,155.65 C299.56,153.43 299.56,151.22 299.41,149.02 C309.448,141.759 318.114,132.769 325,122.47 C315.639,126.618 305.708,129.338 295.54,130.54 C306.247,124.13 314.261,114.048 318.09,102.17 C308.022,108.145 297.006,112.355 285.52,114.62 C269.621,97.714 244.357,93.576 223.895,104.527 C203.434,115.477 192.863,138.793 198.11,161.4 C156.869,159.332 118.445,139.853 92.4,107.81 C78.786,131.246 85.74,161.229 108.28,176.28 C100.117,176.038 92.133,173.836 85,169.86 C85,170.07 85,170.29 85,170.51 C85.007,194.926 102.218,215.955 126.15,220.79 C118.599,222.849 110.676,223.15 102.99,221.67 C109.709,242.564 128.966,256.878 150.91,257.29 C132.747,271.564 110.311,279.313 87.21,279.29 C83.129,279.282 79.052,279.035 75,278.55 C98.456,293.603 125.749,301.587 153.62,301.55" fill="#FFFFFF"/>
  </g>
  <g id="Logo_FIXED"/>
</svg>
