<?xml version="1.0" encoding="UTF-8"?>
<!DOCTYPE svg PUBLIC "-//W3C//DTD SVG 1.1//EN" "http://www.w3.org/Graphics/SVG/1.1/DTD/svg11.dtd">
<svg version="1.1" xmlns="http://www.w3.org/2000/svg" xmlns:xlink="http://www.w3.org/1999/xlink" x="0" y="0" width="500" height="500" viewBox="0, 0, 500, 500">
  <defs>
    <clipPath id="Clip_1">
      <path d="M0,-0 L499.99,-0 L499.99,500 L0,500 z"/>
    </clipPath>
  </defs>
  <g id="レイヤー_1">
    <g clip-path="url(#Clip_1)" id="f_logo_RGB-White_1024">
      <path d="M499.99,249.99 C499.99,111.914 388.057,-0.02 249.981,-0.02 C111.904,-0.02 -0.029,111.914 -0.029,249.99 C-0.029,374.777 91.396,478.207 210.917,496.963 L210.917,322.259 L147.437,322.259 L147.437,249.99 L210.917,249.99 L210.917,194.91 C210.917,132.251 248.241,97.641 305.349,97.641 C332.702,97.641 361.313,102.524 361.313,102.524 L361.313,164.049 L329.787,164.049 C298.73,164.049 289.045,183.321 289.045,203.092 L289.045,249.99 L358.383,249.99 L347.299,322.259 L289.045,322.259 L289.045,496.963 C408.565,478.207 499.99,374.777 499.99,249.99" fill="#FFFFFE"/>
    </g>
  </g>
</svg>
