<?xml version="1.0" encoding="UTF-8"?>
<!DOCTYPE svg PUBLIC "-//W3C//DTD SVG 1.1//EN" "http://www.w3.org/Graphics/SVG/1.1/DTD/svg11.dtd">
<svg version="1.1" xmlns="http://www.w3.org/2000/svg" xmlns:xlink="http://www.w3.org/1999/xlink" x="0" y="0" width="500" height="500" viewBox="0, 0, 500, 500">
  <g id="レイヤー_1">
    <path d="M249,-1 C387.075,-1 499,110.929 499,249 C499,387.071 387.075,499 249,499 C110.929,499 -1,387.071 -1,249 C-1,110.929 110.929,-1 249,-1 z M249.001,99.044 C157.318,99.044 82.713,159.581 82.713,233.99 C82.713,300.698 141.872,356.565 221.784,367.127 C227.197,368.294 234.568,370.698 236.434,375.327 C238.109,379.531 237.53,386.119 236.972,390.361 C236.972,390.361 235.022,402.098 234.597,404.598 C233.872,408.802 231.255,421.044 249.001,413.565 C266.751,406.086 344.768,357.173 379.655,317.019 L379.647,317.019 C403.747,290.59 415.293,263.769 415.293,233.99 C415.293,159.581 340.697,99.044 249.001,99.044 z" fill="#FFFFFF"/>
    <path d="M215.215,198.032 L203.548,198.032 C201.761,198.032 200.311,199.482 200.311,201.265 L200.311,273.723 C200.311,275.507 201.761,276.953 203.548,276.953 L215.215,276.953 C217.003,276.953 218.453,275.507 218.453,273.723 L218.453,201.265 C218.453,199.482 217.003,198.032 215.215,198.032" fill="#FFFFFF"/>
    <path d="M295.501,198.032 L283.834,198.032 C282.047,198.032 280.597,199.482 280.597,201.265 L280.597,244.311 L247.393,199.469 C247.318,199.353 247.23,199.248 247.138,199.144 C247.134,199.136 247.126,199.128 247.118,199.123 C247.055,199.053 246.988,198.986 246.926,198.919 C246.901,198.903 246.884,198.886 246.863,198.865 C246.809,198.815 246.751,198.765 246.693,198.723 C246.663,198.698 246.634,198.678 246.609,198.657 C246.551,198.619 246.497,198.578 246.438,198.54 C246.405,198.519 246.376,198.503 246.343,198.482 C246.284,198.448 246.226,198.415 246.168,198.386 C246.134,198.373 246.101,198.353 246.068,198.336 C246.005,198.311 245.943,198.282 245.88,198.257 C245.843,198.244 245.813,198.232 245.776,198.219 C245.713,198.198 245.651,198.178 245.584,198.157 C245.547,198.148 245.509,198.14 245.472,198.128 C245.409,198.115 245.347,198.103 245.284,198.086 C245.238,198.078 245.193,198.073 245.147,198.069 C245.093,198.057 245.034,198.053 244.976,198.048 C244.922,198.04 244.868,198.04 244.809,198.036 C244.768,198.036 244.734,198.032 244.697,198.032 L233.034,198.032 C231.247,198.032 229.793,199.482 229.793,201.265 L229.793,273.723 C229.793,275.507 231.247,276.953 233.034,276.953 L244.697,276.953 C246.484,276.953 247.938,275.507 247.938,273.723 L247.938,230.69 L281.18,275.586 C281.409,275.911 281.697,276.178 282.005,276.39 C282.018,276.394 282.03,276.403 282.038,276.415 C282.105,276.453 282.172,276.498 282.234,276.536 C282.268,276.553 282.297,276.569 282.33,276.586 C282.38,276.607 282.43,276.636 282.484,276.661 C282.538,276.682 282.584,276.707 282.643,276.728 C282.676,276.74 282.705,276.753 282.738,276.765 C282.813,276.786 282.888,276.811 282.959,276.832 L283.009,276.844 C283.268,276.915 283.547,276.953 283.834,276.953 L295.501,276.953 C297.293,276.953 298.738,275.507 298.738,273.723 L298.738,201.265 C298.738,199.482 297.293,198.032 295.501,198.032" fill="#FFFFFF"/>
    <path d="M187.098,258.811 L155.407,258.811 L155.407,201.265 C155.407,199.481 153.957,198.031 152.169,198.031 L140.503,198.031 C138.715,198.031 137.265,199.481 137.265,201.265 L137.265,273.715 L137.265,273.723 C137.265,274.59 137.611,275.381 138.169,275.956 C138.182,275.973 138.194,275.994 138.215,276.006 C138.228,276.023 138.244,276.036 138.261,276.052 C138.844,276.611 139.628,276.952 140.498,276.952 L140.503,276.952 L187.098,276.952 C188.886,276.952 190.332,275.506 190.332,273.715 L190.332,262.048 C190.332,260.265 188.886,258.811 187.098,258.811" fill="#FFFFFF"/>
    <path d="M359.913,216.176 C361.701,216.176 363.147,214.725 363.147,212.938 L363.147,201.271 C363.147,199.484 361.701,198.034 359.913,198.034 L313.318,198.034 L313.309,198.034 C312.434,198.034 311.651,198.38 311.063,198.946 C311.051,198.959 311.043,198.967 311.03,198.98 C311.009,199.001 310.992,199.017 310.976,199.038 C310.422,199.617 310.076,200.4 310.076,201.267 L310.076,201.271 L310.076,273.717 L310.076,273.725 C310.076,274.592 310.426,275.38 310.984,275.959 C310.997,275.975 311.013,275.992 311.03,276.009 C311.043,276.021 311.059,276.038 311.076,276.051 C311.655,276.609 312.443,276.955 313.309,276.955 L313.318,276.955 L359.913,276.955 C361.701,276.955 363.147,275.505 363.147,273.717 L363.147,262.051 C363.147,260.263 361.701,258.809 359.913,258.809 L328.222,258.809 L328.222,246.563 L359.913,246.563 C361.701,246.563 363.147,245.113 363.147,243.326 L363.147,231.663 C363.147,229.871 361.701,228.421 359.913,228.421 L328.222,228.421 L328.222,216.176 z" fill="#FFFFFF"/>
  </g>
</svg>
