<?xml version="1.0" encoding="UTF-8"?>
<!DOCTYPE svg PUBLIC "-//W3C//DTD SVG 1.1//EN" "http://www.w3.org/Graphics/SVG/1.1/DTD/svg11.dtd">
<svg version="1.1" xmlns="http://www.w3.org/2000/svg" xmlns:xlink="http://www.w3.org/1999/xlink" x="0" y="0" width="500" height="500" viewBox="0, 0, 500, 500">
  <g id="レイヤー_1">
    <path d="M250,-0 C388.071,-0 500,111.929 500,250 C500,388.071 388.071,500 250,500 C111.929,500 -0,388.071 -0,250 C-0,111.929 111.929,-0 250,-0 z M77.974,159.269 C75.67,164.718 74.491,170.578 74.5,176.5 L74.5,323.5 C74.5,348.353 94.647,368.5 119.5,368.5 L380.5,368.5 C405.353,368.5 425.5,348.353 425.5,323.5 L425.5,176.5 C425.356,170.808 424.562,165.072 422.256,159.814 L259.46,275.147 C258.003,276.073 258.605,275.785 257.737,276.167 C257.022,276.611 257.492,276.354 256.265,276.816 C255.173,277.298 255.641,277.168 254.901,277.33 C254.217,277.588 254.68,277.439 253.477,277.644 C252.228,277.919 252.735,277.883 251.974,277.901 C251.259,278.022 251.747,277.962 250.5,277.934 C249.253,277.962 249.741,278.022 249.026,277.901 C248.265,277.883 248.772,277.919 247.523,277.644 C246.32,277.439 246.783,277.588 246.098,277.33 C245.359,277.168 245.827,277.298 244.734,276.816 C243.508,276.354 243.978,276.611 243.262,276.167 C242.395,275.785 242.997,276.073 241.54,275.147 L77.974,159.269 z M380.5,131.5 L119.5,131.5 C112.507,131.677 105.453,132.975 99.241,136.344 L250.5,243.504 L401.324,136.652 C394.953,133.191 387.729,131.546 380.5,131.5 z" fill="#FFFFFF"/>
  </g>
  <g id="レイヤー_2"/>
</svg>
