<?xml version="1.0" encoding="UTF-8"?>
<!DOCTYPE svg PUBLIC "-//W3C//DTD SVG 1.1//EN" "http://www.w3.org/Graphics/SVG/1.1/DTD/svg11.dtd">
<svg version="1.1" xmlns="http://www.w3.org/2000/svg" xmlns:xlink="http://www.w3.org/1999/xlink" x="0" y="0" width="500" height="500" viewBox="0, 0, 500, 500">
  <g id="レイヤー_1">
    <path d="M247,0 C385.071,0 497,111.929 497,250 C497,388.071 385.071,500 247,500 C108.929,500 -3,388.071 -3,250 C-3,111.929 108.929,0 247,0 z M319.183,123.942 C281.723,123.942 251.347,154.318 251.347,191.764 C251.347,197.087 251.943,202.262 253.106,207.229 C196.737,204.395 146.752,177.404 113.302,136.364 C107.472,146.385 104.117,158.033 104.117,170.454 C104.117,193.986 116.091,214.76 134.299,226.912 C123.175,226.57 112.722,223.512 103.58,218.426 C103.564,218.709 103.564,218.994 103.564,219.291 C103.564,252.144 126.948,279.567 157.98,285.786 C152.284,287.336 146.289,288.172 140.1,288.172 C135.731,288.172 131.481,287.74 127.35,286.949 C135.985,313.896 161.023,333.505 190.712,334.058 C167.494,352.25 138.251,363.091 106.474,363.091 C101,363.091 95.602,362.779 90.293,362.152 C120.312,381.388 155.953,392.618 194.262,392.618 C319.019,392.618 387.242,289.26 387.242,199.637 C387.242,196.7 387.183,193.776 387.048,190.868 C400.29,181.296 411.803,169.351 420.885,155.75 C408.731,161.148 395.653,164.787 381.933,166.427 C395.937,158.033 406.688,144.746 411.758,128.909 C398.65,136.678 384.14,142.328 368.691,145.371 C356.315,132.188 338.688,123.942 319.183,123.942 z" fill="#FFFFFF"/>
  </g>
</svg>
